<svg width="741" height="609" viewBox="0 0 741 609" fill="none" xmlns="http://www.w3.org/2000/svg">
<g clip-path="url(#clip0)">
<path d="M740.84 589.863C741.066 613.568 591.686 615.741 588.841 589.864C588.614 566.16 737.995 563.988 740.84 589.863Z" fill="#E6E6E6"/>
<path d="M623.966 507.569L612.864 513.624L619.929 536.837L631.03 537.846L637.086 524.726L623.966 507.569Z" fill="#9F616A"/>
<path d="M658.28 553.994V565.095L675.437 564.086L675.198 554.943L658.28 553.994Z" fill="#9F616A"/>
<path d="M619.929 374.348L625.984 450.042L645.16 561.058L675.437 557.021L665.345 469.217L669.382 388.478L619.929 374.348Z" fill="#2F2E41"/>
<path d="M700.668 317.831L628.003 318.84L619.929 374.349L669.382 397.561L681.493 441.968L619.929 507.569L644.151 537.846C644.151 537.846 678.465 491.421 703.696 465.181C728.927 438.94 716.816 359.21 716.816 359.21L700.668 317.831Z" fill="#2F2E41"/>
<path d="M657.271 174.518C669.533 174.518 679.474 164.577 679.474 152.315C679.474 140.052 669.533 130.111 657.271 130.111C645.008 130.111 635.067 140.052 635.067 152.315C635.067 164.577 645.008 174.518 657.271 174.518Z" fill="#9F616A"/>
<path d="M649.197 167.454V189.657L664.335 213.879C664.335 213.879 687.548 196.722 682.502 192.685C677.456 188.648 676.446 157.361 676.446 157.361L649.197 167.454Z" fill="#9F616A"/>
<path d="M649.197 185.62L634.058 203.786L640.114 329.941L687.548 328.932L695.622 218.925L685.53 190.666L678.607 181.247L666.354 199.749L649.197 185.62Z" fill="#D0CDE1"/>
<path d="M624.975 251.221L613.873 293.609L624.975 335.997L606.809 360.219L590.661 283.517C590.661 283.517 602.772 220.943 603.781 213.879C604.79 206.814 606.809 205.805 606.809 205.805L614.883 206.814L624.975 251.221Z" fill="#2F2E41"/>
<path d="M705.714 267.368L712.779 280.489L714.798 302.692L710.761 327.923L724.89 351.136L739.019 287.553L723.881 205.804H717.825L705.714 267.368Z" fill="#2F2E41"/>
<path d="M619.929 506.56C619.929 506.56 605.799 510.597 600.753 511.606C595.707 512.615 603.781 531.791 603.781 531.791C603.781 531.791 608.827 558.031 609.836 563.077C610.845 568.123 617.91 585.281 626.993 587.299C636.076 589.318 630.021 551.976 630.021 551.976C630.021 551.976 634.058 539.865 634.058 535.828C634.058 531.791 628.003 533.809 628.003 533.809C611.855 531.791 619.929 506.56 619.929 506.56Z" fill="#2F2E41"/>
<path d="M653.234 584.271C654.243 590.327 652.225 590.327 668.373 592.345C684.521 594.364 680.484 581.243 680.484 581.243C679.809 575.058 678.455 568.966 676.447 563.077C673.419 555.003 657.271 565.096 657.271 565.096C657.271 565.096 652.225 578.216 653.234 584.271Z" fill="#2F2E41"/>
<path d="M676.473 158.066L676.999 167.042C676.999 167.042 683.511 152.315 684.52 137.176C685.529 122.038 668.372 119.01 658.28 118.001C648.187 116.991 631.03 124.056 631.03 132.13C631.03 140.204 649.197 138.186 656.261 136.167C663.326 134.149 666.354 151.306 666.354 151.306L670.391 152.315L676.473 158.066Z" fill="#2F2E41"/>
<path d="M643.24 192.767L649.197 185.62L666.354 199.749L649.197 211.86L643.24 192.767Z" fill="#D0CDE1"/>
<path d="M685.53 190.666L678.465 181.583L666.354 199.749L681.493 210.851L685.53 190.666Z" fill="#D0CDE1"/>
<path d="M621.947 265.351L625.984 303.702L617.91 326.915L612.864 349.118C612.864 349.118 612.864 370.312 633.049 371.321C653.234 372.33 670.391 307.739 670.391 307.739C670.391 307.739 673.419 321.868 675.437 329.942C677.456 338.016 711.77 370.312 711.77 370.312C711.77 370.312 719.844 369.303 726.909 353.155C733.973 337.007 712.779 321.868 712.779 321.868L706.724 300.674L708.742 274.434L722.872 205.805L680.988 184.106L685.53 242.138L670.391 287.554L647.683 187.134L640.114 192.685L607.818 205.805L621.947 265.351Z" fill="#2F2E41"/>
<path d="M223.084 418C221.088 417.985 219.07 417.971 217.087 417.91L217.149 415.911C219.111 415.971 221.117 415.999 223.084 416C225.061 416 227.074 415.968 229.072 415.904L229.136 417.902C227.117 417.967 225.081 418 223.084 418ZM205.065 417.156C201.084 416.779 197.063 416.268 193.114 415.638L193.43 413.664C197.336 414.287 201.314 414.792 205.253 415.165L205.065 417.156ZM241.157 417.134L240.967 415.144C244.905 414.767 248.882 414.256 252.789 413.627L253.107 415.602C249.158 416.238 245.138 416.753 241.157 417.134H241.157ZM181.285 413.356C177.386 412.472 173.464 411.449 169.627 410.315L170.194 408.397C173.99 409.519 177.87 410.531 181.727 411.405L181.285 413.356ZM264.933 413.306L264.489 411.357C268.355 410.475 272.234 409.458 276.019 408.334L276.588 410.252C272.762 411.388 268.841 412.415 264.933 413.306H264.933ZM158.188 406.53C154.426 405.148 150.663 403.626 147.002 402.006L147.811 400.178C151.433 401.78 155.156 403.286 158.877 404.653L158.188 406.53ZM288.021 406.452L287.33 404.575C291.028 403.212 294.739 401.707 298.357 400.102L299.169 401.93C295.51 403.553 291.76 405.075 288.021 406.452H288.021ZM136.134 396.772C132.594 394.924 129.059 392.932 125.627 390.852L126.665 389.141C130.06 391.201 133.557 393.17 137.059 394.999L136.134 396.772ZM310.006 396.699L309.081 394.926C312.575 393.099 316.064 391.129 319.45 389.072L320.489 390.781C317.066 392.861 313.54 394.851 310.006 396.699H310.006ZM115.525 384.272C112.246 381.984 108.997 379.557 105.866 377.061L107.113 375.497C110.21 377.967 113.426 380.368 116.669 382.631L115.525 384.272ZM330.575 384.201L329.428 382.562C332.671 380.295 335.882 377.895 338.972 375.427L340.22 376.99C337.097 379.484 333.852 381.91 330.575 384.201V384.201ZM96.6875 369.248C93.7236 366.557 90.8096 363.738 88.0278 360.87L89.4634 359.477C92.2158 362.315 95.0991 365.104 98.0322 367.767L96.6875 369.248ZM349.389 369.178L348.043 367.698C350.969 365.04 353.85 362.249 356.607 359.405L358.042 360.795C355.257 363.671 352.345 366.492 349.389 369.178V369.178ZM79.9204 351.959C77.3252 348.916 74.7949 345.751 72.3989 342.552L74 341.353C76.3706 344.519 78.874 347.651 81.4419 350.661L79.9204 351.959ZM366.148 351.876L364.626 350.58C367.194 347.567 369.698 344.431 372.068 341.261L373.669 342.458C371.274 345.663 368.744 348.831 366.148 351.876V351.876ZM65.4941 332.685C63.3061 329.334 61.2007 325.874 59.2358 322.401L60.9771 321.416C62.9204 324.853 65.0039 328.277 67.1689 331.591L65.4941 332.685ZM380.577 332.577L378.901 331.485C381.067 328.164 383.15 324.734 385.094 321.29L386.836 322.272C384.872 325.754 382.765 329.221 380.577 332.577V332.577ZM53.6509 311.739C51.9106 308.139 50.2666 304.44 48.7646 300.743L50.6172 299.991C52.1035 303.647 53.73 307.307 55.4517 310.868L53.6509 311.739ZM392.423 311.582L390.623 310.713C392.343 307.147 393.97 303.477 395.459 299.803L397.312 300.553C395.808 304.267 394.164 307.978 392.423 311.582V311.582ZM44.5898 289.441C43.3247 285.642 42.1689 281.756 41.1543 277.891L43.0889 277.383C44.0923 281.207 45.2359 285.051 46.4873 288.808L44.5898 289.441ZM401.479 289.229L399.581 288.6C400.825 284.847 401.964 281.001 402.965 277.17L404.901 277.676C403.888 281.549 402.737 285.436 401.479 289.229V289.229ZM38.4712 266.147C37.707 262.223 37.0605 258.222 36.5493 254.254L38.5327 253.999C39.0386 257.924 39.6782 261.882 40.4341 265.764L38.4712 266.147ZM407.57 265.927L405.607 265.548C406.357 261.667 406.993 257.707 407.494 253.779L409.478 254.033C408.971 258.003 408.329 262.005 407.57 265.927V265.927ZM35.3931 242.264C35.1367 238.278 35.0044 234.226 35 230.221L37 230.219C37.0044 234.182 37.1353 238.191 37.3892 242.135L35.3931 242.264ZM410.621 242.04L408.625 241.914C408.874 237.973 409 233.964 409 230L408.999 229.562H410.999L411 229.994C411 234.006 410.872 238.057 410.621 242.04ZM37.3613 218.305L35.3652 218.182C35.6132 214.188 35.9927 210.153 36.4932 206.188L38.4775 206.438C37.9819 210.362 37.6064 214.354 37.3613 218.305ZM408.597 217.649C408.337 213.696 407.948 209.705 407.439 205.787L409.421 205.529C409.936 209.489 410.331 213.522 410.593 217.518L408.597 217.649ZM40.3506 194.668L38.3867 194.29C39.1411 190.365 40.0348 186.412 41.0415 182.539L42.9771 183.042C41.981 186.873 41.0972 190.785 40.3506 194.668ZM405.522 194.023C404.76 190.138 403.862 186.229 402.854 182.407L404.788 181.897C405.807 185.761 406.714 189.711 407.485 193.639L405.522 194.023ZM46.3491 171.61L44.4497 170.983C45.7051 167.183 47.1025 163.371 48.604 159.652L50.4585 160.401C48.9731 164.08 47.5908 167.851 46.3491 171.61ZM399.444 170.986C398.188 167.232 396.794 163.472 395.301 159.81L397.153 159.055C398.663 162.757 400.072 166.558 401.34 170.352L399.444 170.986ZM55.2827 149.483L53.48 148.616C55.2148 145.01 57.0908 141.411 59.0552 137.921L60.7983 138.902C58.8545 142.355 56.999 145.915 55.2827 149.483ZM390.455 148.938C388.732 145.387 386.87 141.84 384.917 138.396L386.657 137.41C388.63 140.89 390.513 144.475 392.253 148.066L390.455 148.938ZM66.98 128.699L65.3032 127.608C67.4844 124.255 69.8042 120.928 72.1978 117.718L73.8013 118.914C71.4331 122.089 69.1377 125.381 66.98 128.699ZM378.712 128.228C376.548 124.923 374.247 121.641 371.87 118.474L373.469 117.274C375.872 120.475 378.199 123.792 380.386 127.132L378.712 128.228ZM81.2319 109.587L79.7085 108.292C82.2988 105.245 85.022 102.241 87.8022 99.3642L89.2407 100.754C86.4898 103.6 83.7954 106.572 81.2319 109.587ZM364.417 109.175C361.845 106.168 359.142 103.205 356.384 100.367L357.818 98.9736C360.606 101.841 363.337 104.836 365.936 107.875L364.417 109.175ZM97.7939 92.4497L96.4473 90.9711C99.4067 88.2753 102.489 85.643 105.607 83.1479L106.857 84.7094C103.771 87.1782 100.722 89.7827 97.7939 92.4497V92.4497ZM347.805 92.0869C344.873 89.4321 341.815 86.8354 338.715 84.3696L339.961 82.8042C343.093 85.2968 346.184 87.9208 349.147 90.6044L347.805 92.0869ZM116.393 77.5634L115.245 75.9257C118.518 73.6323 121.908 71.415 125.323 69.3349L126.363 71.0429C122.985 73.101 119.63 75.2949 116.393 77.5634ZM329.151 77.2451C325.895 74.979 322.53 72.7924 319.148 70.7461L320.183 69.0351C323.601 71.103 327.003 73.313 330.294 75.6035L329.151 77.2451ZM136.727 65.1757L135.798 63.4043C139.334 61.5498 142.978 59.7851 146.629 58.1596L147.442 59.9868C143.83 61.5947 140.225 63.3408 136.727 65.1757ZM308.747 64.9013C305.234 63.0732 301.615 61.3354 297.989 59.7358L298.796 57.9057C302.461 59.5224 306.12 61.2792 309.67 63.1269L308.747 64.9013ZM158.465 55.5004L157.771 53.6244C161.521 52.2372 165.366 50.954 169.2 49.811L169.771 51.728C165.979 52.8583 162.175 54.1279 158.465 55.5004H158.465ZM286.917 55.2734C283.2 53.9135 279.391 52.6577 275.597 51.5415L276.162 49.6225C279.997 50.7509 283.847 52.0205 287.604 53.3955L286.917 55.2734ZM181.297 48.6933L180.851 46.7441C184.742 45.8525 188.72 45.0756 192.675 44.4335L192.995 46.4082C189.083 47.0429 185.147 47.8115 181.297 48.6933ZM264.06 48.5478C260.204 47.6787 256.265 46.9238 252.354 46.3037L252.667 44.3281C256.621 44.955 260.602 45.7182 264.499 46.5966L264.06 48.5478ZM204.815 44.8774L204.622 42.8872C208.593 42.5019 212.637 42.2387 216.643 42.1054L216.709 44.1044C212.746 44.2363 208.744 44.4965 204.815 44.8774V44.8774ZM240.528 44.8154C236.594 44.4477 232.591 44.2016 228.632 44.084L228.692 42.085C232.692 42.2041 236.738 42.4526 240.714 42.8242L240.528 44.8154Z" fill="#D0CDE1"/>
<path d="M216 94C241.957 94 263 72.9574 263 47C263 21.0426 241.957 0 216 0C190.043 0 169 21.0426 169 47C169 72.9574 190.043 94 216 94Z" fill="#FF7300"/>
<path d="M398 222C423.957 222 445 200.957 445 175C445 149.043 423.957 128 398 128C372.043 128 351 149.043 351 175C351 200.957 372.043 222 398 222Z" fill="#FF7300"/>
<path d="M341 418C366.957 418 388 396.957 388 371C388 345.043 366.957 324 341 324C315.043 324 294 345.043 294 371C294 396.957 315.043 418 341 418Z" fill="#FF7300"/>
<path d="M115 426C140.957 426 162 404.957 162 379C162 353.043 140.957 332 115 332C89.0426 332 68 353.043 68 379C68 404.957 89.0426 426 115 426Z" fill="#FF7300"/>
<path d="M47 222C72.9574 222 94 200.957 94 175C94 149.043 72.9574 128 47 128C21.0426 128 0 149.043 0 175C0 200.957 21.0426 222 47 222Z" fill="#FF7300"/>
<path d="M236.141 43.2525H219.747C218.256 43.2525 216.827 42.6603 215.773 41.6062C214.719 40.5521 214.126 39.1225 214.126 37.6318V21.2379C214.126 21.1764 214.114 21.1155 214.091 21.0587C214.067 21.0018 214.033 20.9502 213.989 20.9067C213.946 20.8632 213.894 20.8287 213.837 20.8052C213.78 20.7816 213.72 20.7695 213.658 20.7695H202.885C200.897 20.7695 198.991 21.5591 197.586 22.9646C196.18 24.37 195.391 26.2762 195.391 28.2638V65.7354C195.391 67.723 196.18 69.6292 197.586 71.0347C198.991 72.4402 200.897 73.2297 202.885 73.2297H229.115C231.103 73.2297 233.009 72.4402 234.414 71.0347C235.82 69.6292 236.609 67.723 236.609 65.7354V43.7209C236.609 43.6594 236.597 43.5984 236.574 43.5416C236.55 43.4848 236.516 43.4332 236.472 43.3897C236.429 43.3462 236.377 43.3117 236.32 43.2881C236.263 43.2646 236.203 43.2525 236.141 43.2525V43.2525ZM225.368 61.9883H206.632C206.135 61.9883 205.659 61.7909 205.307 61.4395C204.956 61.0881 204.759 60.6116 204.759 60.1147C204.759 59.6178 204.956 59.1412 205.307 58.7899C205.659 58.4385 206.135 58.2411 206.632 58.2411H225.368C225.865 58.2411 226.341 58.4385 226.693 58.7899C227.044 59.1412 227.241 59.6178 227.241 60.1147C227.241 60.6116 227.044 61.0881 226.693 61.4395C226.341 61.7909 225.865 61.9883 225.368 61.9883ZM225.368 52.6204H206.632C206.135 52.6204 205.659 52.423 205.307 52.0716C204.956 51.7202 204.759 51.2437 204.759 50.7468C204.759 50.2499 204.956 49.7733 205.307 49.422C205.659 49.0706 206.135 48.8732 206.632 48.8732H225.368C225.865 48.8732 226.341 49.0706 226.693 49.422C227.044 49.7733 227.241 50.2499 227.241 50.7468C227.241 51.2437 227.044 51.7202 226.693 52.0716C226.341 52.423 225.865 52.6204 225.368 52.6204Z" fill="white"/>
<path d="M235.112 39.1063L218.272 22.2663C218.24 22.2338 218.198 22.2116 218.153 22.2027C218.107 22.1937 218.06 22.1984 218.018 22.216C217.975 22.2337 217.939 22.2635 217.913 22.3019C217.887 22.3402 217.873 22.3853 217.873 22.4315V37.632C217.873 38.1289 218.07 38.6055 218.422 38.9569C218.773 39.3082 219.25 39.5056 219.747 39.5056H234.947C234.993 39.5054 235.038 39.4916 235.077 39.4658C235.115 39.4401 235.145 39.4036 235.163 39.3609C235.18 39.3182 235.185 39.2713 235.176 39.226C235.167 39.1807 235.145 39.1391 235.112 39.1063L235.112 39.1063Z" fill="white"/>
<path d="M347.798 361.741C347.222 361.742 346.663 361.942 346.218 362.307C345.773 362.673 345.468 363.182 345.356 363.747C345.244 364.313 345.331 364.899 345.603 365.407C345.875 365.915 346.315 366.313 346.847 366.534C347.38 366.754 347.972 366.783 348.524 366.615C349.075 366.448 349.551 366.094 349.871 365.615C350.191 365.136 350.335 364.56 350.278 363.987C350.221 363.413 349.968 362.877 349.56 362.47C349.329 362.239 349.054 362.055 348.752 361.93C348.449 361.805 348.125 361.741 347.798 361.741Z" fill="white"/>
<path d="M361.665 351.781V351.773C361.586 351.427 361.412 351.11 361.163 350.857C360.913 350.605 360.598 350.427 360.253 350.345C357.472 349.666 353.097 350.389 348.249 352.331C343.587 354.143 339.321 356.844 335.69 360.284C334.698 361.27 333.776 362.325 332.932 363.441C331.067 363.312 329.197 363.612 327.466 364.319C322.077 366.69 320.538 372.759 320.129 375.251C320.069 375.605 320.093 375.968 320.197 376.311C320.3 376.655 320.482 376.97 320.728 377.232C320.973 377.494 321.276 377.695 321.612 377.821C321.948 377.947 322.309 377.994 322.666 377.957H322.678L328.681 377.302C328.688 377.379 328.697 377.449 328.703 377.513C328.78 378.244 329.107 378.927 329.627 379.447L332.557 382.378C333.075 382.899 333.758 383.226 334.489 383.303L334.69 383.324L334.037 389.319V389.331C334.005 389.636 334.034 389.944 334.122 390.238C334.209 390.531 334.354 390.805 334.547 391.043C334.74 391.28 334.978 391.478 335.248 391.624C335.517 391.769 335.813 391.861 336.117 391.892C336.189 391.9 336.261 391.904 336.333 391.904C336.463 391.904 336.593 391.894 336.721 391.873C339.226 391.469 345.292 389.949 347.657 384.532C348.358 382.807 348.66 380.945 348.539 379.087C349.66 378.245 350.719 377.323 351.708 376.33C355.145 372.732 357.849 368.5 359.669 363.869C361.6 359.076 362.327 354.668 361.665 351.781ZM351.674 368.101C350.907 368.869 349.93 369.392 348.867 369.604C347.803 369.816 346.7 369.708 345.697 369.293C344.695 368.879 343.838 368.176 343.235 367.275C342.632 366.373 342.31 365.313 342.309 364.228C342.309 363.143 342.63 362.083 343.232 361.18C343.834 360.278 344.69 359.575 345.692 359.159C346.694 358.743 347.797 358.634 348.861 358.845C349.925 359.056 350.902 359.578 351.67 360.345L351.674 360.349C352.702 361.361 353.286 362.741 353.297 364.184C353.307 365.627 352.745 367.015 351.732 368.043L351.674 368.101Z" fill="white"/>
<path d="M332.221 383.173C331.86 383.128 331.494 383.217 331.194 383.422C330.598 383.83 329.999 384.233 329.394 384.626C329.131 384.795 328.82 384.871 328.509 384.841C328.198 384.812 327.906 384.678 327.68 384.463C327.454 384.248 327.307 383.963 327.262 383.654C327.218 383.345 327.278 383.03 327.434 382.759L328.568 380.8C328.73 380.563 328.82 380.284 328.828 379.997C328.836 379.709 328.76 379.426 328.611 379.181C328.462 378.935 328.245 378.738 327.986 378.613C327.727 378.488 327.438 378.44 327.153 378.475C325.895 378.634 324.725 379.207 323.828 380.104C323.487 380.447 322.448 381.487 321.889 385.448C321.73 386.586 321.629 387.731 321.588 388.88C321.583 389.076 321.617 389.271 321.687 389.454C321.758 389.637 321.863 389.804 321.998 389.946C322.134 390.088 322.295 390.203 322.474 390.282C322.654 390.362 322.847 390.406 323.043 390.411C323.056 390.411 323.069 390.411 323.082 390.411H323.119C324.268 390.37 325.414 390.271 326.553 390.112C330.517 389.552 331.556 388.513 331.898 388.171C332.799 387.274 333.371 386.099 333.521 384.836C333.569 384.443 333.459 384.047 333.215 383.735C332.971 383.423 332.614 383.221 332.221 383.173V383.173Z" fill="white"/>
<path d="M98.8245 404.54H95.4192C94.7419 404.54 94.0922 404.271 93.6133 403.792C93.1343 403.313 92.8652 402.664 92.8652 401.986V386.662C92.8652 385.985 93.1343 385.335 93.6133 384.856C94.0922 384.377 94.7419 384.108 95.4192 384.108H98.8245C99.5019 384.108 100.152 384.377 100.63 384.856C101.109 385.335 101.379 385.985 101.379 386.662V401.986C101.379 402.664 101.109 403.313 100.63 403.792C100.152 404.271 99.5019 404.54 98.8245 404.54V404.54Z" fill="white"/>
<path d="M122.661 404.539H119.256C118.579 404.539 117.929 404.27 117.45 403.791C116.971 403.312 116.702 402.663 116.702 401.985V376.446C116.702 375.768 116.971 375.119 117.45 374.64C117.929 374.161 118.579 373.892 119.256 373.892H122.661C123.339 373.892 123.988 374.161 124.467 374.64C124.946 375.119 125.215 375.768 125.215 376.446V401.985C125.215 402.663 124.946 403.312 124.467 403.791C123.988 404.27 123.339 404.539 122.661 404.539V404.539Z" fill="white"/>
<path d="M134.58 404.54H131.175C130.498 404.54 129.848 404.271 129.369 403.792C128.89 403.313 128.621 402.663 128.621 401.986V364.528C128.621 363.85 128.89 363.201 129.369 362.722C129.848 362.243 130.498 361.974 131.175 361.974H134.58C135.258 361.974 135.907 362.243 136.386 362.722C136.865 363.201 137.134 363.85 137.134 364.528V401.986C137.134 402.663 136.865 403.313 136.386 403.792C135.907 404.271 135.258 404.54 134.58 404.54V404.54Z" fill="white"/>
<path d="M110.743 404.54H107.338C106.661 404.54 106.011 404.271 105.532 403.792C105.053 403.313 104.784 402.663 104.784 401.986V356.014C104.784 355.337 105.053 354.687 105.532 354.208C106.011 353.729 106.661 353.46 107.338 353.46H110.743C111.421 353.46 112.07 353.729 112.549 354.208C113.028 354.687 113.297 355.337 113.297 356.014V401.986C113.297 402.321 113.231 402.653 113.103 402.963C112.975 403.273 112.787 403.554 112.549 403.792C112.312 404.029 112.031 404.217 111.721 404.345C111.411 404.474 111.079 404.54 110.743 404.54V404.54Z" fill="white"/>
<path d="M400.252 173.769L397.819 171.335C397.261 170.778 396.506 170.464 395.718 170.462C394.93 170.46 394.173 170.77 393.612 171.324L376.698 186.935C376.077 187.484 375.697 188.256 375.64 189.083C375.622 189.494 375.689 189.904 375.837 190.288C375.984 190.672 376.21 191.021 376.498 191.314L380.132 194.988L380.139 194.995C380.7 195.554 381.46 195.87 382.253 195.872H382.363C382.774 195.849 383.176 195.745 383.546 195.567C383.917 195.388 384.248 195.138 384.522 194.832L400.241 177.994C400.803 177.437 401.12 176.68 401.124 175.889C401.127 175.099 400.816 174.339 400.259 173.777L400.252 173.769Z" fill="white"/>
<path d="M419.804 168.85L419.775 168.821L416.582 165.66C416.395 165.474 416.173 165.326 415.928 165.226C415.684 165.126 415.422 165.075 415.158 165.077C414.73 165.077 414.313 165.212 413.966 165.463C413.966 165.423 413.972 165.383 413.975 165.349C414.104 164.533 413.932 163.698 413.49 162.999C412.787 162.051 412.014 161.156 411.179 160.321L411.172 160.313C408.838 158.074 406.094 156.304 403.092 155.101C401.522 154.457 399.842 154.126 398.146 154.127C395.95 154.107 393.816 154.855 392.112 156.241C391.627 156.704 391.185 157.21 390.791 157.752C390.603 158.012 390.503 158.326 390.507 158.647C390.512 158.968 390.62 159.279 390.815 159.533C391.01 159.788 391.282 159.973 391.591 160.061C391.9 160.149 392.229 160.134 392.529 160.02C392.79 159.922 393.057 159.84 393.328 159.775C393.893 159.656 394.472 159.619 395.047 159.668C396.24 159.792 397.383 160.211 398.373 160.888C398.928 161.355 399.37 161.943 399.664 162.606C399.959 163.269 400.099 163.991 400.074 164.716C399.661 165.895 399.028 166.985 398.211 167.929C397.993 168.216 397.886 168.573 397.911 168.933C397.936 169.293 398.09 169.631 398.346 169.886L401.552 173.092C401.822 173.362 402.184 173.519 402.566 173.529C402.947 173.54 403.318 173.404 403.602 173.15C404.509 172.34 405.89 171.119 406.372 170.82C406.785 170.544 407.252 170.36 407.742 170.28C408.107 170.244 408.474 170.322 408.794 170.502C408.796 170.518 408.794 170.534 408.789 170.549C408.784 170.564 408.776 170.578 408.765 170.59L408.596 170.751L408.568 170.778C408.191 171.153 407.979 171.663 407.978 172.194C407.977 172.726 408.187 173.237 408.562 173.613L408.572 173.623L411.765 176.783C411.952 176.969 412.174 177.117 412.418 177.217C412.663 177.317 412.924 177.367 413.188 177.365C413.718 177.366 414.228 177.159 414.607 176.788L419.778 171.679C419.796 171.662 419.813 171.643 419.83 171.625C420.177 171.244 420.367 170.747 420.362 170.232C420.358 169.717 420.158 169.223 419.804 168.85Z" fill="white"/>
<path d="M54.4622 172.202C54.0932 172.202 53.7326 172.093 53.4258 171.888C53.119 171.683 52.8799 171.391 52.7387 171.05C52.5975 170.709 52.5606 170.334 52.6325 169.973C52.7045 169.611 52.8822 169.278 53.1431 169.017L57.4206 164.74L53.1431 160.462C52.7932 160.112 52.5967 159.638 52.5967 159.143C52.5967 158.648 52.7932 158.174 53.1431 157.824C53.4929 157.474 53.9674 157.277 54.4622 157.277C54.957 157.277 55.4315 157.474 55.7814 157.824L61.3781 163.421C61.5514 163.594 61.6888 163.799 61.7826 164.026C61.8764 164.252 61.9246 164.495 61.9246 164.74C61.9246 164.985 61.8764 165.227 61.7826 165.454C61.6888 165.68 61.5514 165.886 61.3781 166.059L55.7814 171.656C55.6083 171.829 55.4027 171.967 55.1763 172.06C54.9499 172.154 54.7073 172.202 54.4622 172.202Z" fill="white"/>
<path d="M24.6127 177.799C24.3677 177.799 24.1251 177.75 23.8987 177.657C23.6724 177.563 23.4667 177.426 23.2935 177.252C23.1202 177.079 22.9828 176.873 22.8891 176.647C22.7953 176.421 22.7471 176.178 22.7471 175.933V174.068C22.7617 171.104 23.945 168.267 26.0398 166.171C28.1346 164.075 30.9718 162.89 33.9351 162.874H58.1933C58.6881 162.874 59.1626 163.071 59.5125 163.42C59.8624 163.77 60.0589 164.245 60.0589 164.74C60.0589 165.234 59.8624 165.709 59.5125 166.059C59.1626 166.409 58.6881 166.605 58.1933 166.605H33.9406C31.9641 166.617 30.072 167.408 28.6749 168.806C27.2778 170.204 26.4885 172.097 26.4783 174.073V175.933C26.4783 176.178 26.43 176.421 26.3363 176.647C26.2425 176.873 26.1051 177.079 25.9319 177.252C25.7586 177.426 25.553 177.563 25.3266 177.657C25.1003 177.75 24.8577 177.799 24.6127 177.799V177.799Z" fill="white"/>
<path d="M39.5376 192.723C39.2926 192.724 39.0499 192.675 38.8235 192.582C38.5971 192.488 38.3915 192.35 38.2184 192.177L32.6217 186.58C32.4484 186.407 32.311 186.201 32.2172 185.975C32.1235 185.749 32.0752 185.506 32.0752 185.261C32.0752 185.016 32.1235 184.773 32.2172 184.547C32.311 184.321 32.4484 184.115 32.6217 183.942L38.2184 178.345C38.5684 177.996 39.0428 177.8 39.5372 177.8C40.0317 177.8 40.5059 177.997 40.8555 178.346C41.2052 178.696 41.4017 179.17 41.4019 179.664C41.4021 180.159 41.206 180.633 40.8567 180.983L36.5792 185.261L40.8567 189.539C41.1176 189.799 41.2953 190.132 41.3673 190.494C41.4393 190.856 41.4023 191.231 41.2611 191.572C41.1199 191.912 40.8808 192.204 40.574 192.409C40.2673 192.614 39.9066 192.723 39.5376 192.723Z" fill="white"/>
<path d="M35.806 187.126C35.3112 187.126 34.8367 186.929 34.4868 186.579C34.137 186.23 33.9404 185.755 33.9404 185.26C33.9404 184.766 34.137 184.291 34.4868 183.941C34.8367 183.591 35.3112 183.395 35.806 183.395H60.0587C62.0351 183.383 63.9273 182.592 65.3243 181.194C66.7214 179.796 67.5107 177.903 67.521 175.927V174.067C67.521 173.572 67.7175 173.097 68.0674 172.748C68.4173 172.398 68.8918 172.201 69.3866 172.201C69.8814 172.201 70.3559 172.398 70.7058 172.748C71.0556 173.097 71.2522 173.572 71.2522 174.067V175.932C71.2376 178.896 70.0543 181.733 67.9595 183.829C65.8646 185.925 63.0274 187.11 60.0642 187.126L35.806 187.126Z" fill="white"/>
</g>
<defs>
<clipPath id="clip0">
<rect width="740.84" height="608.466" fill="white"/>
</clipPath>
</defs>
</svg>
