<svg width="922" height="628" viewBox="0 0 922 628" fill="none" xmlns="http://www.w3.org/2000/svg">
<path d="M53.9316 620C37.1503 620 24.1303 615.371 14.8716 606.112C5.61296 596.853 0.983629 584.123 0.983629 567.92V59.272C0.983629 42.4907 5.9023 29.1813 15.7396 19.344C26.1556 8.92797 39.7543 3.71997 56.5356 3.71997C73.8956 3.71997 87.4943 8.92797 97.3316 19.344C107.748 29.1813 112.956 42.4907 112.956 59.272V527.992H356.864C391.584 527.992 408.944 543.327 408.944 573.996C408.944 604.665 391.584 620 356.864 620H53.9316ZM683.225 627.812C638.668 627.812 596.425 622.025 556.497 610.452C517.148 598.3 485.032 582.097 460.149 561.844C446.84 552.007 440.185 538.119 440.185 520.18C440.185 508.028 443.657 497.612 450.601 488.932C458.124 479.673 466.804 475.044 476.641 475.044C487.057 475.044 498.92 479.095 512.229 487.196C537.112 505.135 563.152 518.155 590.349 526.256C617.546 534.357 647.637 538.408 680.621 538.408C722.864 538.408 755.269 531.175 777.837 516.708C800.405 501.663 811.689 479.963 811.689 451.608C811.689 429.619 800.984 412.837 779.573 401.264C758.741 389.112 723.732 377.539 674.545 366.544C623.622 355.549 582.248 342.819 550.421 328.352C518.594 313.885 494.58 295.368 478.377 272.8C462.174 250.232 454.073 221.588 454.073 186.868C454.073 150.991 464.2 118.875 484.453 90.52C504.706 62.1653 532.772 40.176 568.649 24.552C605.105 8.34929 645.901 0.24796 691.037 0.24796C773.786 0.24796 841.201 22.2373 893.281 66.216C900.804 72.5813 906.012 78.9466 908.905 85.312C912.377 91.0986 914.113 98.6213 914.113 107.88C914.113 120.032 910.352 130.737 902.829 139.996C895.885 148.676 887.494 153.016 877.657 153.016C871.87 153.016 866.373 152.148 861.165 150.412C856.536 148.676 850.17 145.493 842.069 140.864C818.344 123.504 795.197 110.773 772.629 102.672C750.64 93.992 723.442 89.652 691.037 89.652C651.688 89.652 620.44 97.7533 597.293 113.956C574.725 129.58 563.441 151.569 563.441 179.924C563.441 203.649 573.568 221.877 593.821 234.608C614.074 247.339 648.505 259.201 697.113 270.196C748.614 281.769 790.278 294.789 822.105 309.256C854.51 323.144 879.104 341.083 895.885 363.072C913.245 385.061 921.925 412.548 921.925 445.532C921.925 481.409 911.798 513.236 891.545 541.012C871.87 568.209 843.805 589.62 807.349 605.244C771.472 620.289 730.097 627.812 683.225 627.812Z" fill="url(#paint0_linear_90_11)"/>
<defs>
<linearGradient id="paint0_linear_90_11" x1="-65" y1="-178" x2="959" y2="642" gradientUnits="userSpaceOnUse">
<stop offset="0.195929" stop-color="#FFE600"/>
<stop offset="1" stop-color="#FF0000"/>
<stop offset="1" stop-color="#FF0000"/>
</linearGradient>
</defs>
</svg>
